<svg width="513" height="512" viewBox="0 0 513 512" fill="none" xmlns="http://www.w3.org/2000/svg">
<path fill-rule="evenodd" clip-rule="evenodd" d="M54.0084 484.325C78.2736 498.698 111.32 510.13 155.816 511.952C160.811 512.14 165.805 511.08 170.337 508.967C134.863 490.615 94.6257 481.73 54.0084 484.325ZM229.23 459.901L187.854 495.502C178.068 489.963 167.886 485.098 157.376 480.954C126.588 468.812 93.6388 463.103 60.56 464.18L85.14 439.6L104.68 420.06C130.989 418.087 157.402 422.112 181.93 431.829C199.129 438.643 215.086 448.131 229.23 459.901ZM246.3 447.952H245.179C229.655 434.374 212.061 423.357 193.06 415.32C171.292 406.176 148.037 401.086 124.44 400.3L147.31 377.43L156.016 375.252C154.778 374.324 153.54 373.387 152.3 372.44L157.92 366.82L170.32 354.42C182.847 355.941 195.156 358.907 207 363.26C221.01 368.492 234.233 375.626 246.3 384.46V447.952ZM267.631 447.952H265.72V385.24C277.895 376.287 291.205 368.99 305.3 363.54C317.145 359.189 329.453 356.223 341.98 354.7L387.86 400.58C364.263 401.366 341.008 406.456 319.24 415.6C300.496 423.715 283.095 434.624 267.631 447.952ZM408.554 421.294C383.204 438.141 352.763 447.952 320.016 447.952H299.74C308.298 442.393 317.342 437.567 326.78 433.54C352.289 422.783 379.994 418.258 407.6 420.34L408.554 421.294ZM480.016 264.72V288.052C480.016 336.648 458.379 380.137 424.208 409.448L421.36 406.6C419.257 378.993 423.783 351.283 434.56 325.78C444.456 302.592 459.176 281.777 477.74 264.72H480.016ZM480.016 151.237V245.28H477.14C457.68 227.464 442.519 205.462 432.801 180.934C423.083 156.405 419.061 129.989 421.04 103.68L440.58 84.14L460.768 63.9522H465.059C464.648 93.7212 469.719 123.309 480.016 151.237ZM489.155 109.676L512.016 63.9522H484.961C484.756 79.3874 486.191 94.7093 489.155 109.676ZM347.176 83.9171C361.267 71.4928 379.759 63.9522 400.016 63.9522H433.308L426.88 70.38L407.34 89.92C387.043 91.4419 366.684 89.3945 347.176 83.9171ZM245.582 60.973C245.818 61.6561 246.058 62.3382 246.3 63.0192V124.72C237.609 131.111 228.34 136.658 218.62 141.291C200.014 130.87 182.843 117.999 167.594 102.958C176.16 100.677 184.576 97.8064 192.78 94.36C212.015 86.0513 229.831 74.7856 245.582 60.973ZM32.0972 149.912C41.5553 123.882 46.4795 96.4295 46.6629 68.7494C47.4575 66.4376 48.2822 64.1399 49.1366 61.8566L90.66 103.38C92.7625 130.987 88.2368 158.697 77.46 184.2C69.6707 202.452 58.8925 219.234 45.6031 233.87C36.8514 209.205 32.0164 183.212 32.0164 156.552C32.0164 154.332 32.0434 152.119 32.0972 149.912ZM137.005 360.255C130.435 354.774 123.814 348.896 117.116 342.452C110.086 335.697 103.376 328.617 97.0323 321.244C96.5919 320.139 96.1411 319.038 95.68 317.94C87.4461 298.482 76.09 280.498 62.06 264.7H126.54C135.359 276.776 142.492 289.998 147.74 304C152.2 316 155.02 328.3 156.58 340.68L144.18 353.08L137.005 360.255ZM88.377 44.8026C95.6372 60.8126 104.404 75.9715 114.496 90.1073C111.139 90.0489 107.779 89.8933 104.42 89.64L84.86 70.1L60.28 45.52C69.6716 45.8251 79.0528 45.5832 88.377 44.8026ZM159.784 84.9327C170.891 55.3664 186.573 28.6149 206.116 5.55223C214.916 -4.94777 231.816 0.352228 233.916 13.8522C235.284 22.8211 237.106 31.6793 239.363 40.3983C223.716 55.6226 205.373 67.8503 185.24 76.44C176.96 79.9319 168.448 82.7671 159.784 84.9327ZM129.406 109.134C127.659 109.24 125.911 109.322 124.16 109.38L157.64 142.86L170.04 155.26C172.912 154.898 175.78 154.468 178.641 153.966C160.438 141.085 143.898 126.019 129.406 109.134ZM201.498 168.487C196.67 169.874 191.787 171.066 186.86 172.06L217.96 203.16C218.547 203.153 219.132 203.175 219.716 203.197C220.722 203.236 221.727 203.274 222.74 203.16C226.767 202.779 230.73 201.899 234.54 200.54C236.852 199.624 239.092 198.534 241.24 197.28C242.687 196.476 244.004 195.492 245.328 194.503C245.651 194.261 245.974 194.019 246.3 193.78V188.784C230.665 183.348 215.682 176.535 201.498 168.487ZM267.253 195.136C268.336 195.95 269.426 196.745 270.6 197.4C276.382 200.647 282.765 202.682 289.36 203.38C290.304 203.481 291.255 203.447 292.21 203.413C292.773 203.393 293.336 203.373 293.9 203.38L296.27 201.012C286.416 199.566 276.734 197.598 267.253 195.136ZM320.016 177.28L324.9 172.4C323.271 172.058 321.642 171.701 320.016 171.326V177.28ZM288.016 160.738V167.152C280.474 165.593 273.041 163.686 265.74 161.442V148.9C272.852 153.293 280.275 157.277 288.016 160.738ZM288.016 139.241C280.238 135.276 272.781 130.689 265.72 125.52V105.569C272.313 117.24 279.767 128.433 288.016 139.052V139.241ZM320.016 151.426V144.052C320.016 127.776 324.871 112.626 333.211 99.9786C350.755 105.776 369.062 109.043 387.58 109.66L354.1 143.16L341.7 155.56C334.381 154.671 327.137 153.29 320.016 151.426ZM246.3 154.553C244.195 153.704 242.104 152.827 240.027 151.921C242.141 150.701 244.233 149.441 246.3 148.14V154.553ZM24.3275 408.197L12.1164 411.252C1.41642 413.952 -3.38358 426.352 2.61642 435.652C7.88811 443.802 15.5097 453.669 26.1541 463.569C27.9142 444.94 27.241 426.343 24.3275 408.197ZM43.7614 403.336C46.305 418.86 47.3373 434.635 46.82 450.44L71.4 425.86L90.98 406.3C91.3535 401.333 91.5132 396.363 91.4611 391.402L43.7614 403.336ZM300.44 255.4C293.68 245.68 289.6 234.46 288.5 222.68C276.83 221.62 265.626 217.585 255.96 210.96C251.4 214.08 246.58 216.84 241.28 218.8C235.52 220.94 229.6 222 223.64 222.54C223.1 228.46 222.04 234.34 219.92 240.06C217.96 245.38 215.18 250.2 212.06 254.76C218.644 264.368 222.659 275.501 223.72 287.1C229.719 287.565 235.631 288.823 241.3 290.84C246.794 292.962 251.99 295.786 256.76 299.24C261.28 296.067 266.17 293.454 271.32 291.46C277.04 289.34 282.92 288.3 288.84 287.74C289.305 281.721 290.563 275.79 292.58 270.1C294.589 264.897 297.229 259.96 300.44 255.4ZM195.885 265.834C195.602 265.457 195.318 265.08 195.04 264.7L149.9 264.72C156.308 275.01 161.681 285.91 165.94 297.26C169.082 305.936 171.576 314.834 173.4 323.88L204.28 293C204.28 292.447 204.3 291.891 204.32 291.336C204.36 290.224 204.4 289.113 204.28 288.02C203.56 281.48 201.58 275.18 198.36 269.46C197.649 268.174 196.767 267.003 195.885 265.834ZM219.925 306.383C219.389 306.405 218.855 306.427 218.32 306.42L187.14 337.6C196.186 339.424 205.084 341.918 213.76 345.06C225.108 349.323 236.007 354.696 246.3 361.1V315.76C245.84 315.427 245.391 315.078 244.942 314.729C244.044 314.031 243.147 313.333 242.16 312.76C239.74 311.34 237.22 310.04 234.52 309.04C230.66 307.6 226.7 306.86 222.72 306.42C221.782 306.306 220.852 306.344 219.925 306.383ZM265.72 316.86V361.82C276.111 355.296 287.101 349.778 298.54 345.34C307.216 342.198 316.114 339.704 325.16 337.88L294.38 307.1C293.815 307.107 293.248 307.085 292.68 307.063C291.701 307.024 290.723 306.986 289.76 307.1C283.24 307.84 276.94 309.82 271.24 313.02C269.535 313.96 267.981 315.142 266.42 316.329C266.187 316.506 265.954 316.683 265.72 316.86ZM308.143 291.665C308.165 292.248 308.187 292.833 308.18 293.42L338.88 324.14C340.704 315.094 343.198 306.196 346.34 297.52C350.793 286.084 356.317 275.095 362.84 264.7H317.82C317.597 265 317.372 265.299 317.146 265.598C316.075 267.019 314.995 268.451 314.12 270.02C312.9 272.22 311.7 274.44 310.8 276.84C309.38 280.7 308.62 284.66 308.18 288.64C308.066 289.653 308.104 290.658 308.143 291.665ZM316.169 244.013C316.489 244.433 316.809 244.853 317.12 245.28L362.1 245.3C355.78 235.08 350.34 224.26 346.06 212.76C342.82 204.02 340.48 195.1 338.6 186.14L307.78 216.96C307.78 217.5 307.76 218.042 307.74 218.584C307.7 219.669 307.66 220.753 307.78 221.82C308.509 228.509 310.606 234.976 313.94 240.82C314.595 241.944 315.381 242.977 316.169 244.013ZM204.313 218.691C204.293 218.121 204.273 217.55 204.28 216.98L173.14 185.84C171.26 194.8 168.92 203.72 165.68 212.46C161.46 223.78 155.38 235.18 149.18 245.28H194.78C195.03 244.941 195.283 244.604 195.536 244.268C196.534 242.938 197.526 241.617 198.34 240.18C201.544 234.447 203.564 228.129 204.28 221.6C204.381 220.63 204.347 219.661 204.313 218.691ZM355.74 340.98L368.14 353.38L401.62 386.88C402.406 363.283 407.496 340.028 416.64 318.26C425.07 298.723 436.554 280.651 450.66 264.72H386.28C377.72 276.54 369.78 290.3 364.58 304.3C360.227 316.144 357.261 328.453 355.74 340.98ZM364.3 205.98C369.532 219.99 376.666 233.213 385.5 245.28H449.98C436.16 229.64 424.7 211.84 416.36 192.04C411.859 181.325 408.34 170.25 405.834 158.951C404.029 159.662 402.066 160.052 400.016 160.052C391.216 160.052 384.016 152.852 384.016 144.052C384.016 142.759 384.172 141.501 384.465 140.295L367.86 156.9L355.46 169.3C356.983 181.827 359.949 194.135 364.3 205.98ZM396.259 128.501C397.465 128.208 398.724 128.052 400.016 128.052C400.535 128.052 401.048 128.077 401.554 128.126C401.464 126.559 401.392 124.99 401.34 123.42L396.259 128.501ZM147.46 205.68C151.813 193.836 154.779 181.527 156.3 169L110.42 123.1C109.634 146.697 104.544 169.952 95.4 191.72C86.9696 211.257 75.4862 229.329 61.38 245.26H125.76C134.32 233.44 142.26 219.68 147.46 205.68Z" fill="white"/>
</svg>
